<svg width="177" height="157" viewBox="0 0 177 157" fill="none" xmlns="http://www.w3.org/2000/svg">
<ellipse cx="96" cy="79.5" rx="81" ry="77.5" fill="#DE6980"/>
<path d="M92.3831 7.92967C92.8237 5.89 96.0144 5.58794 96.8106 7.51679C101.566 19.0359 111.72 40.9731 124.378 52.928C136.303 64.1904 156.055 71.8871 167.668 75.7089C169.735 76.389 169.581 79.9824 167.467 80.4991C155.829 83.3451 136.235 89.5054 124.378 100.703C110.392 113.913 99.4619 141.414 95.4954 152.36C94.8835 154.049 92.5213 154.195 91.7517 152.572C89.052 146.88 84.1571 136.3 79.2552 124.387C72.9371 109.034 63.9074 94.2981 48.2293 88.8342C38.4911 85.4403 27.792 83.0126 18.9503 81.3668C16.5878 80.927 16.5878 76.073 18.9503 75.6332C35.8739 72.483 59.6028 66.468 70.3724 56.2969C83.1157 44.2616 89.6975 20.3621 92.3831 7.92967Z" fill="#D9D9D9"/>
<g filter="url(#filter0_n_11_9)">
<path d="M67.448 79.896C66.68 80.952 65.664 81.872 64.4 82.656C63.136 83.44 61.88 84.008 60.632 84.36C59.4 84.712 58.248 84.888 57.176 84.888C56.248 84.888 55.536 84.752 55.04 84.48C54.544 84.208 54.232 83.864 54.104 83.448C54.104 83.432 54.096 83.416 54.08 83.4C54.08 83.368 54.072 83.344 54.056 83.328C53.992 83.408 53.872 83.584 53.696 83.856C53.536 84.112 53.4 84.304 53.288 84.432C53.048 84.688 52.848 84.816 52.688 84.816C52.432 84.816 52.304 84.496 52.304 83.856C52.304 79.456 53.424 74.92 55.664 70.248C55.568 70.264 55.232 70.336 54.656 70.464C54.08 70.576 53.576 70.68 53.144 70.776C52.728 70.872 52.224 71.024 51.632 71.232C51.04 71.44 50.36 71.712 49.592 72.048C48.824 72.368 48.176 72.76 47.648 73.224C47.12 73.672 46.856 74.12 46.856 74.568C46.856 74.824 46.96 75.088 47.168 75.36C47.376 75.632 47.6 75.84 47.84 75.984C48.112 76.24 48.28 76.416 48.344 76.512H48.248C48.296 76.64 48.24 76.704 48.08 76.704C48.048 76.704 48.008 76.696 47.96 76.68C47.912 76.664 47.848 76.64 47.768 76.608C47.688 76.576 47.624 76.552 47.576 76.536C47.016 76.184 46.648 75.912 46.472 75.72C45.992 75.224 45.752 74.736 45.752 74.256C45.752 73.712 46.064 73.184 46.688 72.672C47.296 72.16 48.032 71.736 48.896 71.4C49.76 71.048 50.704 70.728 51.728 70.44C52.752 70.152 53.624 69.944 54.344 69.816C55.064 69.672 55.632 69.576 56.048 69.528C56.368 68.824 56.672 68.312 56.96 67.992H57.008C57.456 67.88 57.872 67.824 58.256 67.824C58.432 67.824 58.52 67.856 58.52 67.92C58.136 68.304 57.8 68.808 57.512 69.432C57.544 69.432 57.584 69.432 57.632 69.432C59.024 69.432 60.32 69.56 61.52 69.816C62.72 70.056 63.744 70.4 64.592 70.848C65.456 71.28 66.192 71.792 66.8 72.384C67.424 72.976 67.888 73.616 68.192 74.304C68.496 74.976 68.648 75.68 68.648 76.416C68.648 77.616 68.248 78.776 67.448 79.896ZM53.36 83.184C53.376 83.168 53.448 83.088 53.576 82.944C53.704 82.784 53.816 82.672 53.912 82.608C54.008 82.528 54.096 82.488 54.176 82.488C54.208 82.488 54.24 82.496 54.272 82.512C54.304 82.528 54.328 82.552 54.344 82.584C54.36 82.616 54.376 82.648 54.392 82.68C54.408 82.712 54.424 82.752 54.44 82.8C54.456 82.832 54.496 82.928 54.56 83.088C54.64 83.232 54.696 83.336 54.728 83.4C54.76 83.448 54.816 83.528 54.896 83.64C54.976 83.752 55.056 83.84 55.136 83.904C55.232 83.952 55.336 84 55.448 84.048C55.848 84.192 56.328 84.264 56.888 84.264C57.848 84.264 58.928 84.064 60.128 83.664C61.344 83.248 62.48 82.712 63.536 82.056C64.608 81.384 65.424 80.688 65.984 79.968C67.168 78.448 67.76 77.032 67.76 75.72C67.76 74.552 67.288 73.528 66.344 72.648C65.416 71.768 64.224 71.12 62.768 70.704C61.328 70.288 59.76 70.08 58.064 70.08C57.76 70.08 57.456 70.088 57.152 70.104C55.024 73.816 53.768 78.144 53.384 83.088C53.384 83.136 53.376 83.168 53.36 83.184ZM75.8238 76.848C76.1278 76.896 76.2798 76.984 76.2798 77.112C76.2798 77.24 76.1598 77.368 75.9198 77.496C75.6798 77.608 75.4638 77.664 75.2718 77.664C75.2718 79.536 74.7838 81.136 73.8078 82.464C72.8318 83.792 71.8638 84.456 70.9038 84.456C69.9758 84.456 69.5118 83.784 69.5118 82.44C69.5118 82.072 69.5438 81.704 69.6078 81.336C69.6878 80.92 69.8318 80.384 70.0398 79.728C70.2478 79.072 70.5198 78.36 70.8558 77.592C71.1918 76.824 71.5998 76.176 72.0798 75.648C72.5758 75.104 73.0718 74.832 73.5678 74.832H73.7358C73.7358 74.608 73.7998 74.416 73.9278 74.256C74.0558 74.096 74.2318 74.016 74.4558 74.016C74.6798 74.032 74.8798 74.504 75.0558 75.432C75.2318 76.344 75.4878 76.816 75.8238 76.848ZM74.5998 77.472C74.4558 77.392 74.2798 77.112 74.0718 76.632C73.8638 76.136 73.7198 75.888 73.6398 75.888C73.1438 75.888 72.5678 76.624 71.9118 78.096C71.2558 79.552 70.8478 80.704 70.6878 81.552C70.6238 81.92 70.5918 82.256 70.5918 82.56C70.5918 83.344 70.8158 83.736 71.2638 83.736C71.9038 83.736 72.6158 83.088 73.3998 81.792C74.1998 80.48 74.5998 79.04 74.5998 77.472ZM83.8816 74.784C83.8336 74.928 83.6576 75.408 83.3536 76.224C83.0496 77.04 82.8016 77.728 82.6096 78.288C82.3216 79.104 82.0096 80.096 81.6736 81.264C81.3536 82.432 81.1936 83.144 81.1936 83.4C81.1936 83.448 81.2096 83.472 81.2416 83.472C81.3696 83.472 81.6896 83.272 82.2016 82.872C82.7296 82.472 83.0896 82.272 83.2816 82.272C83.4096 82.272 83.4736 82.312 83.4736 82.392C83.4736 82.504 83.2896 82.688 82.9216 82.944C82.5696 83.2 82.1616 83.472 81.6976 83.76C81.2336 84.032 80.9776 84.184 80.9296 84.216C80.8176 84.312 80.6496 84.472 80.4256 84.696C80.2176 84.936 80.0176 85.128 79.8256 85.272C79.6496 85.432 79.4896 85.512 79.3456 85.512C79.1376 85.512 79.0336 85.424 79.0336 85.248C79.0336 85.136 79.1616 84.96 79.4176 84.72C79.6736 84.496 79.8416 84.296 79.9216 84.12C80.1936 83.464 80.7376 81.552 81.5536 78.384C80.8016 79.504 79.8016 80.76 78.5536 82.152C77.3216 83.528 76.3936 84.216 75.7696 84.216C75.5456 84.216 75.4336 84.072 75.4336 83.784C75.4336 83.544 75.5216 83.2 75.6976 82.752C75.6976 82.736 75.8896 82.304 76.2736 81.456C76.6576 80.608 76.9616 79.88 77.1856 79.272C77.4256 78.648 77.5456 78.2 77.5456 77.928C77.5456 77.848 77.5296 77.776 77.4976 77.712C77.4656 77.632 77.4496 77.568 77.4496 77.52C77.4496 77.504 77.4656 77.416 77.4976 77.256C77.7696 76.232 78.0256 75.56 78.2656 75.24C78.5056 74.904 78.9056 74.736 79.4656 74.736C79.6896 74.736 79.8256 74.808 79.8736 74.952C77.9536 79.672 76.9936 82.144 76.9936 82.368C76.9936 82.432 77.0176 82.464 77.0656 82.464C77.1296 82.464 77.3216 82.336 77.6416 82.08C79.2416 80.848 80.6496 79.12 81.8656 76.896C81.8816 76.4 82.0336 75.888 82.3216 75.36C82.6096 74.832 83.0336 74.568 83.5936 74.568C83.7696 74.568 83.8656 74.64 83.8816 74.784ZM88.9938 89.136C88.8498 89.952 88.1378 90.696 86.8578 91.368C85.5938 92.056 84.3938 92.4 83.2578 92.4C82.0898 92.4 81.5058 91.976 81.5058 91.128C81.5058 90.28 81.8978 89.088 82.6818 87.552C83.4658 86.032 84.1218 84.976 84.6498 84.384C84.6978 84.32 84.8578 84.24 85.1298 84.144C85.0498 84.096 84.9458 84.04 84.8178 83.976C84.6898 83.896 84.5778 83.84 84.4818 83.808C84.4018 83.76 84.3298 83.704 84.2658 83.64C84.2018 83.576 84.1698 83.512 84.1698 83.448C84.1698 83.272 84.2418 83.112 84.3858 82.968C84.5458 82.808 84.7058 82.728 84.8658 82.728H84.9618C85.9378 83.096 86.8578 83.904 87.7218 85.152C88.5858 86.4 89.0178 87.568 89.0178 88.656C89.0178 88.88 89.0098 89.04 88.9938 89.136ZM90.6978 76.944C90.6978 77.088 90.5778 77.16 90.3378 77.16H90.1218C90.1058 77.256 90.0658 77.456 90.0018 77.76C89.9538 78.048 89.9058 78.32 89.8578 78.576C89.8098 78.816 89.7698 78.976 89.7378 79.056C89.3378 80.08 88.7778 80.904 88.0578 81.528C87.3538 82.136 86.6178 82.44 85.8498 82.44C85.4018 82.44 85.0738 82.312 84.8658 82.056C84.6738 81.8 84.5778 81.392 84.5778 80.832C84.5778 79.456 85.0018 78.128 85.8498 76.848C86.7138 75.568 87.6178 74.928 88.5618 74.928C88.6418 74.928 88.7618 74.944 88.9218 74.976C88.9218 74.4 89.1298 74.112 89.5458 74.112C90.0098 74.112 90.2418 74.48 90.2418 75.216C90.2418 75.328 90.2338 75.52 90.2178 75.792C90.2018 76.064 90.1938 76.264 90.1938 76.392C90.2098 76.392 90.2418 76.408 90.2898 76.44C90.3378 76.472 90.3778 76.504 90.4098 76.536C90.4578 76.568 90.5058 76.608 90.5538 76.656C90.6018 76.704 90.6338 76.752 90.6498 76.8C90.6818 76.848 90.6978 76.896 90.6978 76.944ZM87.8658 89.448V89.136C87.8658 88.288 87.6338 87.44 87.1698 86.592C86.7218 85.744 86.1778 85.04 85.5378 84.48C85.5058 84.528 85.3058 84.808 84.9378 85.32C84.5858 85.832 84.2818 86.28 84.0258 86.664C83.7858 87.048 83.5058 87.512 83.1858 88.056C82.8658 88.616 82.6178 89.128 82.4418 89.592C82.2658 90.072 82.1778 90.48 82.1778 90.816C82.1778 91.472 82.5538 91.8 83.3058 91.8C84.1218 91.8 85.0738 91.528 86.1618 90.984C87.2658 90.44 87.8338 89.928 87.8658 89.448ZM89.2338 77.064C89.0578 77.032 88.9538 76.784 88.9218 76.32C88.8898 75.84 88.7778 75.6 88.5858 75.6C88.0898 75.6 87.6258 75.92 87.1938 76.56C86.7618 77.2 86.4258 77.832 86.1858 78.456C85.7858 79.544 85.5858 80.392 85.5858 81C85.5858 81.496 85.7858 81.744 86.1858 81.744C86.7778 81.744 87.4338 81.272 88.1538 80.328C88.8738 79.368 89.2338 78.28 89.2338 77.064ZM98.3051 75.504C97.4411 76.896 96.6331 78.448 95.8811 80.16C95.1451 81.856 94.7771 83.176 94.7771 84.12C94.7771 84.344 94.8411 84.456 94.9691 84.456C95.0171 84.456 95.1531 84.384 95.3771 84.24C95.6171 84.096 95.7611 84.024 95.8091 84.024C95.8891 84.024 95.9291 84.072 95.9291 84.168C95.9291 84.36 95.7771 84.56 95.4731 84.768C95.1691 84.992 94.8731 85.104 94.5851 85.104C94.1851 85.104 93.9851 84.808 93.9851 84.216C93.9851 83.528 94.2091 82.56 94.6571 81.312C95.1051 80.048 95.5531 78.904 96.0011 77.88C96.4491 76.84 96.6731 76.256 96.6731 76.128C96.6731 76.096 96.6651 76.08 96.6491 76.08C96.5851 76.08 96.4411 76.2 96.2171 76.44C95.2091 77.576 94.3611 78.688 93.6731 79.776C92.9851 80.848 92.5211 81.672 92.2811 82.248C92.0571 82.824 91.8171 83.288 91.5611 83.64C91.3211 83.976 91.0331 84.144 90.6971 84.144C90.5531 84.144 90.4811 84.064 90.4811 83.904C90.4811 83.76 90.5211 83.6 90.6011 83.424C91.0331 82.304 91.4491 81.144 91.8491 79.944C92.2491 78.744 92.6731 77.408 93.1211 75.936C93.5851 74.448 93.9611 73.272 94.2491 72.408C94.2971 72.264 94.3211 72.12 94.3211 71.976C94.3211 71.912 94.3131 71.856 94.2971 71.808C94.2811 71.744 94.2731 71.696 94.2731 71.664C94.2731 71.6 94.2971 71.496 94.3451 71.352C94.7131 70.328 95.0251 69.656 95.2811 69.336C95.5371 69 95.9291 68.832 96.4571 68.832C96.6651 68.832 96.7851 68.904 96.8171 69.048C95.0731 72.568 93.6571 76.312 92.5691 80.28C94.9531 76.552 96.7531 74.688 97.9691 74.688C98.3051 74.688 98.4731 74.8 98.4731 75.024C98.4731 75.168 98.4171 75.328 98.3051 75.504ZM126.667 69.696C126.715 69.696 126.755 69.704 126.787 69.72C126.819 69.736 126.851 69.76 126.883 69.792C126.915 69.808 126.939 69.832 126.955 69.864C126.971 69.896 126.979 69.936 126.979 69.984C126.979 70.4 126.363 71.176 125.131 72.312C123.915 73.432 122.491 74.552 120.859 75.672C119.131 76.856 117.467 77.768 115.867 78.408L115.411 79.68C115.715 79.968 116.243 80.48 116.995 81.216C117.763 81.952 118.379 82.536 118.843 82.968C119.307 83.384 119.859 83.856 120.499 84.384C121.139 84.928 121.707 85.336 122.203 85.608C122.715 85.88 123.163 86.032 123.547 86.064H123.619C124.003 86.064 124.275 85.816 124.435 85.32C124.611 84.824 124.699 84.24 124.699 83.568C124.699 83.408 124.683 83.216 124.651 82.992C124.635 82.752 124.627 82.576 124.627 82.464C124.627 82.368 124.635 82.296 124.651 82.248C124.683 82.2 124.723 82.176 124.771 82.176C124.851 82.176 124.931 82.232 125.011 82.344C125.091 82.456 125.131 82.576 125.131 82.704C125.131 82.768 125.131 82.832 125.131 82.896C125.147 82.96 125.155 83.024 125.155 83.088C125.155 83.136 125.155 83.192 125.155 83.256C125.155 83.32 125.155 83.376 125.155 83.424C125.155 84.608 124.939 85.472 124.507 86.016C124.091 86.56 123.619 86.832 123.091 86.832C122.259 86.832 121.091 86.2 119.587 84.936C118.099 83.672 116.603 82.176 115.099 80.448C113.595 84.192 111.923 86.408 110.083 87.096C109.667 87.256 109.179 87.336 108.619 87.336C107.819 87.336 107.043 87.168 106.291 86.832C105.539 86.496 104.963 86 104.563 85.344C103.939 84.304 103.627 83.144 103.627 81.864C103.627 81.688 103.635 81.52 103.651 81.36C103.683 81.2 103.723 81.072 103.771 80.976C103.819 80.864 103.875 80.808 103.939 80.808C104.067 80.808 104.147 81.032 104.179 81.48C104.179 81.704 104.227 82.016 104.323 82.416C104.419 82.816 104.579 83.28 104.803 83.808C105.027 84.32 105.299 84.8 105.619 85.248C105.939 85.712 106.355 86.096 106.867 86.4C107.395 86.72 107.955 86.88 108.547 86.88C108.595 86.88 108.643 86.872 108.691 86.856C108.755 86.856 108.811 86.856 108.859 86.856C110.859 86.68 112.723 84.304 114.451 79.728C114.387 79.664 114.259 79.544 114.067 79.368C113.875 79.176 113.723 79.032 113.611 78.936C113.515 78.824 113.395 78.696 113.251 78.552C113.123 78.392 113.027 78.264 112.963 78.168C112.899 78.056 112.867 77.968 112.867 77.904C112.867 77.824 112.939 77.784 113.083 77.784C113.307 77.992 113.619 78.096 114.019 78.096C114.323 78.096 114.675 78.04 115.075 77.928C115.395 76.952 115.779 75.696 116.227 74.16C116.675 72.608 116.971 71.624 117.115 71.208C113.851 69.816 111.763 69.032 110.851 68.856C109.811 68.648 108.787 68.544 107.779 68.544C106.467 68.544 105.387 68.736 104.539 69.12C103.707 69.504 103.291 70.08 103.291 70.848C103.291 70.992 103.307 71.144 103.339 71.304C103.371 71.448 103.419 71.608 103.483 71.784C103.899 72.824 104.347 73.744 104.827 74.544C105.307 75.328 105.795 75.96 106.291 76.44C106.787 76.904 107.219 77.272 107.587 77.544C107.971 77.816 108.387 78.072 108.835 78.312C109.299 78.552 109.603 78.728 109.747 78.84C109.875 78.92 109.923 79 109.891 79.08C109.859 79.144 109.763 79.16 109.603 79.128C107.987 78.776 106.451 77.76 104.995 76.08C103.539 74.4 102.723 72.848 102.547 71.424C102.515 71.216 102.499 71.016 102.499 70.824C102.499 70.216 102.627 69.696 102.883 69.264C103.139 68.832 103.491 68.504 103.939 68.28C104.387 68.04 104.867 67.872 105.379 67.776C105.891 67.68 106.459 67.632 107.083 67.632C107.995 67.632 108.915 67.72 109.843 67.896C110.787 68.072 111.515 68.248 112.027 68.424C112.251 68.504 112.963 68.792 114.163 69.288C115.363 69.784 116.475 70.216 117.499 70.584C118.539 70.936 119.291 71.112 119.755 71.112C119.883 71.112 119.987 71.096 120.067 71.064C120.147 71.032 120.203 70.992 120.235 70.944C120.331 70.816 120.467 70.752 120.643 70.752C120.819 70.752 120.907 70.816 120.907 70.944C120.907 71.024 120.875 71.112 120.811 71.208C120.763 71.288 120.683 71.392 120.571 71.52C120.347 71.744 119.883 71.856 119.179 71.856C118.587 71.856 118.179 71.8 117.955 71.688C117.795 72.168 117.515 73.072 117.115 74.4C116.731 75.728 116.411 76.776 116.155 77.544C117.291 77.096 118.627 76.376 120.163 75.384C120.819 74.952 121.491 74.456 122.179 73.896C122.883 73.336 123.459 72.856 123.907 72.456C124.355 72.04 124.779 71.64 125.179 71.256C125.579 70.856 125.811 70.632 125.875 70.584L125.803 70.416C125.803 70.304 125.851 70.2 125.947 70.104C126.043 69.992 126.155 69.896 126.283 69.816C126.427 69.736 126.555 69.696 126.667 69.696ZM133.968 75.072C133.152 76.432 132.392 77.992 131.688 79.752C130.984 81.512 130.632 82.832 130.632 83.712C130.632 84 130.696 84.144 130.824 84.144C130.872 84.144 131.024 84.064 131.28 83.904C131.552 83.744 131.712 83.664 131.76 83.664C131.856 83.664 131.904 83.712 131.904 83.808C131.904 84 131.728 84.216 131.376 84.456C131.024 84.696 130.672 84.816 130.32 84.816C129.856 84.816 129.624 84.472 129.624 83.784C129.624 83.16 129.752 82.432 130.008 81.6C130.264 80.768 130.664 79.704 131.208 78.408C131.752 77.112 132.024 76.456 132.024 76.44C132.104 76.232 132.144 76.072 132.144 75.96C132.144 75.88 132.12 75.84 132.072 75.84C131.992 75.84 131.816 75.984 131.544 76.272C130.856 77.04 129.872 78.352 128.592 80.208C127.312 82.064 126.656 83.208 126.624 83.64C126.608 83.752 126.456 83.904 126.168 84.096C125.88 84.304 125.64 84.408 125.448 84.408C125.336 84.408 125.272 84.352 125.256 84.24C125.288 84.288 125.584 83.488 126.144 81.84C126.72 80.192 127.128 79 127.368 78.264C127.432 78.072 127.464 77.928 127.464 77.832C127.464 77.768 127.448 77.712 127.416 77.664C127.4 77.6 127.392 77.552 127.392 77.52C127.392 77.456 127.416 77.352 127.464 77.208C127.832 76.184 128.144 75.512 128.4 75.192C128.656 74.856 129.048 74.688 129.576 74.688C129.784 74.688 129.904 74.76 129.936 74.904C128.624 77.592 127.84 79.512 127.584 80.664C130.224 76.408 132.248 74.28 133.656 74.28C133.976 74.28 134.136 74.384 134.136 74.592C134.136 74.736 134.08 74.896 133.968 75.072ZM139.972 76.848C140.276 76.896 140.428 76.984 140.428 77.112C140.428 77.24 140.308 77.368 140.068 77.496C139.828 77.608 139.612 77.664 139.42 77.664C139.42 79.536 138.932 81.136 137.956 82.464C136.98 83.792 136.012 84.456 135.052 84.456C134.124 84.456 133.66 83.784 133.66 82.44C133.66 82.072 133.692 81.704 133.756 81.336C133.836 80.92 133.98 80.384 134.188 79.728C134.396 79.072 134.668 78.36 135.004 77.592C135.34 76.824 135.748 76.176 136.228 75.648C136.724 75.104 137.22 74.832 137.716 74.832H137.884C137.884 74.608 137.948 74.416 138.076 74.256C138.204 74.096 138.38 74.016 138.604 74.016C138.828 74.032 139.028 74.504 139.204 75.432C139.38 76.344 139.636 76.816 139.972 76.848ZM138.748 77.472C138.604 77.392 138.428 77.112 138.22 76.632C138.012 76.136 137.868 75.888 137.788 75.888C137.292 75.888 136.716 76.624 136.06 78.096C135.404 79.552 134.996 80.704 134.836 81.552C134.772 81.92 134.74 82.256 134.74 82.56C134.74 83.344 134.964 83.736 135.412 83.736C136.052 83.736 136.764 83.088 137.548 81.792C138.348 80.48 138.748 79.04 138.748 77.472ZM143.038 75L143.134 74.664C143.182 74.472 143.206 74.336 143.206 74.256C143.206 74.192 143.19 74.136 143.158 74.088C143.126 74.024 143.11 73.968 143.11 73.92C143.11 73.872 143.134 73.776 143.182 73.632C143.502 72.608 143.79 71.928 144.046 71.592C144.318 71.256 144.71 71.088 145.222 71.088C145.446 71.088 145.574 71.16 145.606 71.304C145.254 72.056 144.766 73.288 144.142 75H146.47C146.918 75 147.142 75.048 147.142 75.144C147.142 75.304 146.774 75.432 146.038 75.528C145.302 75.608 144.598 75.648 143.926 75.648C143.126 77.904 142.478 80.064 141.982 82.128C141.902 82.448 141.862 82.68 141.862 82.824C141.862 83.096 141.95 83.232 142.126 83.232C142.446 83.232 142.91 82.952 143.518 82.392C144.142 81.816 144.478 81.528 144.526 81.528C144.606 81.528 144.646 81.576 144.646 81.672C144.646 81.944 144.558 82.12 144.382 82.2C142.91 83.528 141.878 84.192 141.286 84.192C140.918 84.192 140.734 83.96 140.734 83.496C140.734 83.24 140.926 82.488 141.31 81.24C141.358 81.08 141.87 79.248 142.846 75.744C142.462 75.808 141.926 75.84 141.238 75.84C140.87 75.84 140.686 75.768 140.686 75.624C140.686 75.512 140.79 75.384 140.998 75.24C141.206 75.08 141.374 75 141.502 75H143.038Z" fill="#F05E7B"/>
</g>
<defs>
<filter id="filter0_n_11_9" x="45.752" y="67.632" width="101.39" height="24.768" filterUnits="userSpaceOnUse" color-interpolation-filters="sRGB">
<feFlood flood-opacity="0" result="BackgroundImageFix"/>
<feBlend mode="normal" in="SourceGraphic" in2="BackgroundImageFix" result="shape"/>
<feTurbulence type="fractalNoise" baseFrequency="2 2" stitchTiles="stitch" numOctaves="3" result="noise" seed="8854" />
<feColorMatrix in="noise" type="luminanceToAlpha" result="alphaNoise" />
<feComponentTransfer in="alphaNoise" result="coloredNoise1">
<feFuncA type="discrete" tableValues="1 1 1 1 1 1 1 1 1 1 1 1 1 1 1 1 1 1 1 1 1 1 1 1 1 1 1 1 1 1 1 1 1 1 1 1 1 1 1 1 1 1 1 1 1 1 1 1 1 1 1 0 0 0 0 0 0 0 0 0 0 0 0 0 0 0 0 0 0 0 0 0 0 0 0 0 0 0 0 0 0 0 0 0 0 0 0 0 0 0 0 0 0 0 0 0 0 0 0 0 "/>
</feComponentTransfer>
<feComposite operator="in" in2="shape" in="coloredNoise1" result="noise1Clipped" />
<feFlood flood-color="rgba(0, 0, 0, 0.25)" result="color1Flood" />
<feComposite operator="in" in2="noise1Clipped" in="color1Flood" result="color1" />
<feMerge result="effect1_noise_11_9">
<feMergeNode in="shape" />
<feMergeNode in="color1" />
</feMerge>
</filter>
</defs>
</svg>
